PathFileType	3	(X/Y/Z)	F:\ViconData\AntennenMessung\Messung1\Session1\ID01.trc
DataRate	CameraRate	NumFrames	NumMarkers	Units	OrigDataRate	OrigDataStartFrame	OrigNumFrames
120.0	120.0	4	70	mm	120.0	838	957	
Frame#	Time	Ashort			Along			Atop			A4			Bshort			Blong			Btop			B4			Cshort			Clong			Ctop			C4			Dshort			Dlong			Dtop			D4			Eshort			Elong			Etop			E4			Fshort			Flong			Ftop			F4			Gshort			Glong			Gtop			G4			Hshort			Hlong			Htop			H4			I1			I2			I3			I4			I5			WandAshort			WandAlong			WandAtop			WandA4			WandA15			WandBshort			WandB4			WandB5			WandBtop			WandBlong			WandCshort			WandClong			WandCtop			WandC4			WandC5			Acenter			Aantenna			Bcenter			Bantenna			Ccenter			Cantenna			Dcenter			Dantenna			Ecenter			Eantenna			Fcenter			Fantenna			Gcenter			Gantenna			Hcenter			Hantenna			Icenter			Iantenna			
		X1	Y1	Z1	X2	Y2	Z2	X3	Y3	Z3	X4	Y4	Z4	X5	Y5	Z5	X6	Y6	Z6	X7	Y7	Z7	X8	Y8	Z8	X9	Y9	Z9	X10	Y10	Z10	X11	Y11	Z11	X12	Y12	Z12	X13	Y13	Z13	X14	Y14	Z14	X15	Y15	Z15	X16	Y16	Z16	X17	Y17	Z17	X18	Y18	Z18	X19	Y19	Z19	X20	Y20	Z20	X21	Y21	Z21	X22	Y22	Z22	X23	Y23	Z23	X24	Y24	Z24	X25	Y25	Z25	X26	Y26	Z26	X27	Y27	Z27	X28	Y28	Z28	X29	Y29	Z29	X30	Y30	Z30	X31	Y31	Z31	X32	Y32	Z32	X33	Y33	Z33	X34	Y34	Z34	X35	Y35	Z35	X36	Y36	Z36	X37	Y37	Z37	X38	Y38	Z38	X39	Y39	Z39	X40	Y40	Z40	X41	Y41	Z41	X42	Y42	Z42	X43	Y43	Z43	X44	Y44	Z44	X45	Y45	Z45	X46	Y46	Z46	X47	Y47	Z47	X48	Y48	Z48	X49	Y49	Z49	X50	Y50	Z50	X51	Y51	Z51	X52	Y52	Z52	X53	Y53	Z53	X54	Y54	Z54	X55	Y55	Z55	X56	Y56	Z56	X57	Y57	Z57	X58	Y58	Z58	X59	Y59	Z59	X60	Y60	Z60	X61	Y61	Z61	X62	Y62	Z62	X63	Y63	Z63	X64	Y64	Z64	X65	Y65	Z65	X66	Y66	Z66	X67	Y67	Z67	X68	Y68	Z68	X69	Y69	Z69	X70	Y70	Z70	
838	6.975	-1038.1775	214.28992	-1644.25	-1109.1292	203.22005	-1599.7241	-1063.6553	172.7903	-1625.3842	-1054.1152	262.05951	-1634.9617	-1352.7812	235.33664	1003.9146	-1281.3115	227.15706	1052.4261	-1323.1429	194.24504	1020.8091	-1284.4872	287.92093	1052.7159	814.2207	187.32874	1209.3005	892.32507	178.42291	1179.2231	844.37543	145.52911	1198.1777	860.59167	292.39136	1167.1106	1115.8425	209.81003	-1401.7242	1056.3634	194.1685	-1460.1815	1095.02	162.218	-1423.8805	1069.9215	238.65399	-1425.9392	-1204.4923	1685.9373	-1563.2925	-1129.1052	1688.1718	-1605.9829	-1173.0751	1724.4021	-1581.9969	-1133.5403	1581.1453	-1603.5591	-1239.6912	1699.3029	1119.2462	-1309.2441	1698.6924	1071.698	-1270.2903	1736.1586	1096.6364	-1244.6841	1593.7971	1106.3746	988.89374	1664.2557	1162.2897	957.46869	1700.3719	1183.6168	921.89844	1662.3374	1214.7572	939.80469	1659.3805	1159.9353	999.25537	1668.5636	-1579.458	1058.9821	1670.1642	-1518.6387	1025.11	1707.9945	-1551.1361	1059.3643	1672.1404	-1585.4423	-545.08087	141.67935	-348.90289	-539.2356	147.22084	-432.49573	-573.62616	143.31654	-386.86133	-495.07715	141.95872	-383.01935	-541.59296	107.1721	-389.72125																																														-1069.0566	209.47214	-1624.8717	-1074.7377	248.05237	-1624.3328	-1321.6997	231.77942	1025.0117	-1320.2107	270.50894	1029.3483	847.97968	183.47939	1196.3002	851.6626	222.25768	1194.3817	1088.7609	202.68823	-1428.3405	1082.835	241.00342	-1432.5631	-1171.8419	1686.905	-1581.7817	-1170.5601	1647.9266	-1581.5582	-1270.8562	1699.0293	1097.9409	-1271.4503	1660.0579	1099.3103	952.79779	1705.7401	1186.7867	972.82428	1733.8702	1168.6586	1026.6161	1669.2968	-1551.5967	1028.1327	1630.329	-1552.0604	-542.58179	144.04852	-384.64197	-503.69186	144.96553	-381.86179
839	6.9833333	-1038.1761	214.18576	-1644.1837	-1109.2253	203.38847	-1599.6577	-1063.7091	172.76085	-1625.3564	-1053.9475	261.94257	-1634.9734	-1352.9893	235.12875	1003.999	-1281.2706	227.08295	1052.3673	-1323.0852	194.27679	1020.8032	-1284.4749	287.93439	1052.7477	814.17468	187.52716	1209.3051	892.37805	178.43459	1179.2308	844.50568	145.46034	1198.0706	860.6073	292.2724	1167.1536	1115.8628	209.81967	-1401.7355	1056.2802	194.18553	-1460.2551	1095.0757	162.29509	-1423.887	1069.9233	238.62202	-1425.9246	-1204.5699	1686.0072	-1563.1533	-1129.1006	1688.2006	-1606.0209	-1173.078	1724.4136	-1582	-1133.5819	1581.1484	-1603.5664	-1239.6234	1699.2209	1119.2224	-1309.2812	1698.7531	1071.7252	-1270.3025	1736.1783	1096.6342	-1244.632	1594.0897	1106.4188	988.83307	1664.1953	1162.2462	957.41486	1700.3503	1183.6053	921.70258	1662.3239	1214.7336	939.76929	1659.3801	1159.9275	999.2572	1668.5632	-1579.4651	1058.9714	1670.1676	-1518.6348	1025.1244	1708.0134	-1551.1326	1059.3477	1672.1748	-1585.5364	-544.9281	141.4155	-348.83643	-539.27692	147.3343	-432.4523	-573.76196	143.80362	-386.68634	-495.1387	142.31261	-383.5202	-541.6062	107.20412	-389.68619																																														-1068.9899	209.50301	-1624.8729	-1074.5376	248.10307	-1624.3652	-1321.7643	231.62576	1025.0575	-1320.3948	270.35129	1029.4686	848.22162	183.56857	1196.2117	852.00214	222.33881	1194.3207	1088.8088	202.72092	-1428.3066	1082.8691	241.03763	-1432.4956	-1171.843	1686.9583	-1581.7424	-1170.558	1647.9803	-1581.4744	-1270.9089	1699.0107	1097.8898	-1271.5449	1660.0381	1099.2063	952.70819	1705.7665	1186.8049	972.78223	1733.8926	1168.723	1026.6256	1669.2985	-1551.585	1028.1366	1630.3303	-1552.0405	-542.51337	143.94452	-384.56439	-503.60333	144.11996	-381.92224
840	6.9916667	-1038.1833	214.20793	-1644.1951	-1109.1492	203.17047	-1599.6841	-1063.708	172.76218	-1625.3385	-1054.1459	262.02606	-1634.9364	-1353.0005	235.1339	1003.9126	-1281.2802	227.13239	1052.3939	-1323.0531	194.28284	1020.7302	-1284.4614	287.93243	1052.7047	814.21509	187.40213	1209.3331	892.383	178.39766	1179.2729	844.30298	145.66422	1198.0399	860.547	292.43625	1167.0092	1115.8687	209.83864	-1401.7399	1056.2722	194.16487	-1460.223	1095.0981	162.06967	-1423.4673	1069.9281	238.65796	-1425.9153	-1204.5687	1686.0133	-1563.1477	-1129.1385	1688.3123	-1606.5056	-1173.0483	1724.3369	-1582.0062	-1133.5197	1581.1378	-1603.5616	-1239.6638	1699.2708	1119.2429	-1309.2542	1698.691	1071.6934	-1270.2611	1736.116	1096.6134	-1244.6005	1594.1847	1106.3586	988.89032	1664.2509	1162.2725	957.48712	1700.3245	1183.7051	921.83722	1662.2905	1214.7419	939.82281	1659.3807	1159.8966	999.2616	1668.5756	-1579.4764	1058.9709	1670.1697	-1518.6383	1025.1185	1708.017	-1551.137	1059.3423	1672.1681	-1585.5381	-545.07812	141.67624	-348.89401	-539.27283	147.31136	-432.44519	-573.6441	143.29898	-386.86954	-495.16296	142.28947	-383.51883	-541.63367	107.24052	-389.57645																																														-1069.0792	209.40259	-1624.8164	-1074.7355	247.98634	-1624.2667	-1321.7812	231.65091	1025.016	-1320.4634	270.37476	1029.4574	848.00793	183.50938	1196.3376	851.80396	222.285	1194.5938	1088.9735	202.76526	-1428.1326	1083.2063	241.08548	-1432.5256	-1171.8733	1687.0098	-1581.9413	-1170.6465	1648.0292	-1581.8734	-1270.8529	1699.0109	1097.9321	-1271.4745	1660.0404	1099.3169	952.76874	1705.7444	1186.9253	972.82208	1733.916	1168.8915	1026.6223	1669.3059	-1551.5984	1028.1361	1630.3381	-1552.063	-542.59308	144.08839	-384.65884	-503.70407	145.07707	-381.89008
841	7	-1038.187	214.27464	-1644.2264	-1109.1637	203.17812	-1599.6946	-1063.5862	172.82158	-1625.3887	-1054.1218	262.06909	-1634.946	-1352.9545	235.13728	1003.9548	-1281.351	227.13385	1052.334	-1323.0695	194.24966	1020.7939	-1284.4851	287.94415	1052.704	814.14636	187.50699	1209.3542	892.16217	178.48352	1179.2882	844.24115	145.66528	1198.0396	860.62061	292.30331	1167.151	1115.8444	209.80043	-1401.7328	1056.2759	194.18781	-1460.2507	1095.0377	162.12439	-1423.6957	1069.9413	238.62965	-1425.918	-1204.5729	1686.0106	-1563.1377	-1129.1261	1688.1998	-1606.0059	-1173.0486	1724.3379	-1582.0028	-1133.4976	1581.1233	-1603.5142	-1239.6924	1699.3258	1119.25	-1309.3302	1698.7988	1071.7419	-1270.2979	1736.1967	1096.6461	-1244.6888	1593.8024	1106.5703	988.86212	1664.2482	1162.2688	957.45782	1700.4135	1183.651	921.72791	1662.3752	1214.7307	939.7876	1659.3711	1159.946	999.26953	1668.5685	-1579.4602	1058.9935	1670.177	-1518.6398	1025.1125	1707.9905	-1551.1271	1059.3418	1672.168	-1585.5377	-544.93762	141.41808	-348.82626	-539.28369	147.31276	-432.4614	-573.70471	143.66331	-386.73199	-495.18478	142.25784	-383.51727	-541.60773	107.15845	-389.61786																																														-1069.0024	209.45694	-1624.8922	-1074.7057	248.03412	-1624.3698	-1321.7545	231.64992	1025.035	-1320.3931	270.37793	1029.4269	847.96582	183.59534	1196.3208	851.77338	222.36923	1194.5638	1088.8605	202.72809	-1428.2406	1083.0305	241.05052	-1432.5304	-1171.8192	1686.9609	-1581.7479	-1170.5372	1647.9829	-1581.4823	-1270.9089	1699.0894	1097.9535	-1271.5508	1660.1189	1099.3265	952.76697	1705.8153	1186.8447	972.86407	1733.9419	1168.7893	1026.6317	1669.3053	-1551.5957	1028.162	1630.3381	-1552.0679	-542.51892	143.93973	-384.60428	-503.6109	144.28461	-381.94974
